<svg version="1.2" xmlns="http://www.w3.org/2000/svg" viewBox="0 0 43 43" width="43" height="43">
	<title>Logo for Instagram - White-svg</title>
	<style>
		.s0 { fill: #000000 } 
	</style>
	<g id="Layer">
		<g id="Layer">
			<path id="Layer" class="s0" d="m5.8 0c0.1 0.6 0.2 1.1 0.4 1.6q0.2 0.5 0.3 0.9c0.1 0.7 0.4 1.4 0.6 2.1 0.1 0.6 0.3 1.2 0.5 1.8 0.1 0.5 0.3 1 0.5 1.5q0.1 0.5 0.3 1 0.3 1.2 0.8 2.3c0.1 0.3 0.2 0.6 0.3 0.9 0.2 0.6 0.4 1.3 0.6 2 0.3 0.7 0.6 1.4 0.9 2.2 0.2 0.5 0.5 1.1 0.7 1.7q0.3 0.7 0.7 1.5c0.4 0.9 0.8 1.8 1.3 2.7q0.9 1.6 1.9 3.1c0.6 0.9 1.4 1.7 2.3 2.5 1.5 1.2 3.3 1.4 5.2 0.9 1.3-0.4 2.5-1 3.6-1.7 1.6-1 3-2.3 4.3-3.6q2.2-2.1 4-4.4 1.5-1.9 2.8-3.9 1.1-1.8 2.2-3.6c0.5-0.8 0.9-1.7 1.4-2.5 0.2-0.4 0.4-1 0.6-1.4 0.1-0.1 0.1-0.2 0.2-0.2 0.1 0 0.1 0.1 0.1 0.2q0 0.3-0.1 0.6 0 12.9 0 25.8 0 0.2 0.1 0.4c0 0.1 0 0.2-0.1 0.2-0.1 0.1-0.1 0-0.2-0.1-0.5-0.9-1.1-1.6-1.7-2.4-1-1.4-2.1-2.6-3.4-3.6-0.9-0.7-1.9-1.2-3-1.6q-1.4-0.4-2.9-0.3c-1.3 0.1-2.5 0.6-3.7 1.3-0.9 0.5-1.7 1-2.7 1.4-1.7 0.9-3.4 1.1-5.3 0.6-1.2-0.4-2.3-1-3.3-1.9-1.1-1-2-2.1-2.8-3.4-0.7-1-1.3-2-1.9-3-0.6-1-1.2-2-2.1-2.8-0.3-0.4-0.8-0.7-1.3-0.7-0.7 0-1.2 0.3-1.6 0.7-0.7 0.8-1.2 1.7-1.5 2.7q-0.3 0.6-0.6 1.3-0.1 0.4-0.2 0.7c-0.2 0.9-0.5 1.8-0.7 2.7q-0.3 1-0.5 2c-0.1 0.7-0.3 1.4-0.4 2.2q-0.1 0.6-0.3 1.2-0.2 0.9-0.3 1.8c0 0.7-0.2 1.4-0.3 2.1q0 0.5-0.1 1.1c-0.1 0.5-0.2 1-0.3 1.6q-0.2 1.6-0.4 3.2 0 0.4-0.1 0.7c-0.1 0-0.4 0.1-0.5 0 0-0.1 0-0.3 0-0.5q0-20.7 0-41.4c0-0.2 0.1-0.2 0.3-0.2q2.7 0 5.4 0z"/>
		</g>
	</g>
</svg>